<svg width="22" height="18" viewBox="0 0 22 18" fill="none" xmlns="http://www.w3.org/2000/svg">
<path d="M21.46 2.04102C20.69 2.39102 19.86 2.62102 19 2.73102C19.88 2.20102 20.56 1.36102 20.88 0.351016C20.05 0.851016 19.13 1.20102 18.16 1.40102C17.37 0.541016 16.26 0.0410156 15 0.0410156C12.65 0.0410156 10.73 1.96102 10.73 4.33102C10.73 4.67102 10.77 5.00102 10.84 5.31102C7.28001 5.13102 4.11001 3.42102 2.00001 0.831016C1.63001 1.46102 1.42001 2.20102 1.42001 2.98102C1.42001 4.47102 2.17001 5.79102 3.33001 6.54102C2.62001 6.54102 1.96001 6.34102 1.38001 6.04102V6.07102C1.38001 8.15102 2.86001 9.89102 4.82001 10.281C4.19074 10.4532 3.5301 10.4772 2.89001 10.351C3.16162 11.2035 3.69355 11.9494 4.41103 12.4839C5.1285 13.0185 5.99546 13.3147 6.89001 13.331C5.37364 14.5315 3.494 15.1803 1.56001 15.171C1.22001 15.171 0.880009 15.151 0.540009 15.111C2.44001 16.331 4.70001 17.041 7.12001 17.041C15 17.041 19.33 10.501 19.33 4.83102C19.33 4.64102 19.33 4.46102 19.32 4.27102C20.16 3.67102 20.88 2.91102 21.46 2.04102Z" fill="white"/>
</svg>
