<svg width="22" height="22" viewBox="0 0 22 22" fill="none" xmlns="http://www.w3.org/2000/svg">
<path d="M4.92446 21.041H0.363393V7.02072H4.92446V21.041ZM2.64147 5.10822C1.18299 5.10822 0 3.9551 0 2.56291C1.04392e-08 1.89419 0.278297 1.25286 0.77367 0.780007C1.26904 0.307151 1.94091 0.0415039 2.64147 0.0415039C3.34204 0.0415039 4.0139 0.307151 4.50928 0.780007C5.00465 1.25286 5.28295 1.89419 5.28295 2.56291C5.28295 3.9551 4.09946 5.10822 2.64147 5.10822ZM21.9951 21.041H17.4438V14.216C17.4438 12.5895 17.4095 10.5035 15.0725 10.5035C12.7011 10.5035 12.3377 12.2707 12.3377 14.0988V21.041H7.78152V7.02072H12.156V8.93322H12.2198C12.8287 7.83166 14.3162 6.66916 16.5354 6.66916C21.1514 6.66916 22 9.57072 22 13.3395V21.041H21.9951Z" fill="white"/>
</svg>
