<svg width="20" height="21" viewBox="0 0 20 21" fill="none" xmlns="http://www.w3.org/2000/svg">
<path d="M5.8 0.0410156H14.2C17.4 0.0410156 20 2.64102 20 5.84102V14.241C20 15.7793 19.3889 17.2545 18.3012 18.3422C17.2135 19.4299 15.7383 20.041 14.2 20.041H5.8C2.6 20.041 0 17.441 0 14.241V5.84102C0 4.30276 0.61107 2.82751 1.69878 1.7398C2.78649 0.652085 4.26174 0.0410156 5.8 0.0410156ZM5.6 2.04102C4.64522 2.04102 3.72955 2.4203 3.05442 3.09543C2.37928 3.77056 2 4.68624 2 5.64102V14.441C2 16.431 3.61 18.041 5.6 18.041H14.4C15.3548 18.041 16.2705 17.6617 16.9456 16.9866C17.6207 16.3115 18 15.3958 18 14.441V5.64102C18 3.65102 16.39 2.04102 14.4 2.04102H5.6ZM15.25 3.54102C15.5815 3.54102 15.8995 3.67271 16.1339 3.90713C16.3683 4.14155 16.5 4.4595 16.5 4.79102C16.5 5.12254 16.3683 5.44048 16.1339 5.6749C15.8995 5.90932 15.5815 6.04102 15.25 6.04102C14.9185 6.04102 14.6005 5.90932 14.3661 5.6749C14.1317 5.44048 14 5.12254 14 4.79102C14 4.4595 14.1317 4.14155 14.3661 3.90713C14.6005 3.67271 14.9185 3.54102 15.25 3.54102ZM10 5.04102C11.3261 5.04102 12.5979 5.5678 13.5355 6.50548C14.4732 7.44316 15 8.71493 15 10.041C15 11.3671 14.4732 12.6389 13.5355 13.5765C12.5979 14.5142 11.3261 15.041 10 15.041C8.67392 15.041 7.40215 14.5142 6.46447 13.5765C5.52678 12.6389 5 11.3671 5 10.041C5 8.71493 5.52678 7.44316 6.46447 6.50548C7.40215 5.5678 8.67392 5.04102 10 5.04102ZM10 7.04102C9.20435 7.04102 8.44129 7.35709 7.87868 7.91969C7.31607 8.4823 7 9.24537 7 10.041C7 10.8367 7.31607 11.5997 7.87868 12.1623C8.44129 12.7249 9.20435 13.041 10 13.041C10.7956 13.041 11.5587 12.7249 12.1213 12.1623C12.6839 11.5997 13 10.8367 13 10.041C13 9.24537 12.6839 8.4823 12.1213 7.91969C11.5587 7.35709 10.7956 7.04102 10 7.04102Z" fill="white"/>
</svg>
